<svg width="180" height="35" viewBox="0 0 180 35" fill="none" xmlns="http://www.w3.org/2000/svg">
<g clip-path="url(#clip0)">
<path d="M21.9075 9.34839H24.9882L27.0915 26.5768H23.4105L22.2082 16.2497L18.1765 24.6015H15.347L11.2897 16.2497L10.0627 26.5768H6.38153L8.51058 9.34839H11.5403L16.7492 20.4507L21.9075 9.34839Z" fill="white"/>
<path d="M36.7048 23.201C39.5595 23.201 41.8132 20.8755 41.8132 17.9999C41.8132 15.1243 39.5594 12.7741 36.7048 12.7741C33.8497 12.7741 31.6211 15.1243 31.6211 17.9999C31.6211 20.8755 33.8497 23.201 36.7048 23.201ZM36.7048 9.14795C41.6134 9.14795 45.4695 13.0986 45.4695 17.9999C45.4695 22.8509 41.6134 26.8272 36.7048 26.8272C31.8219 26.8272 27.9648 22.8509 27.9648 17.9999C27.9648 13.0986 31.8218 9.14795 36.7048 9.14795Z" fill="white"/>
<path d="M60.3194 26.5768H57.038L51.0262 16.1495V26.5768H47.3704V9.34839H50.7264L56.6375 19.6503V9.34839H60.3194V26.5768Z" fill="white"/>
<path d="M63.9069 9H74.8223V12.2252H67.5618V16.1517H73.922V19.3271H67.5618V23.0027H75.0519V26.2284H63.9069V9Z" fill="white"/>
<path d="M97.1392 21.5255C97.1887 22.6262 98.0664 23.6016 99.7184 23.6016C101.195 23.6016 102.221 22.9013 102.248 21.7759C102.275 21.0006 101.924 20.3255 100.168 19.8253L98.0935 19.2498C94.2854 18.075 93.6328 15.8493 93.6328 14.2991C93.6328 11.2235 96.2615 9.14795 99.5699 9.14795C102.901 9.14795 105.403 11.1233 105.403 14.4241H101.748C101.748 13.2744 100.97 12.4739 99.5204 12.4739C98.2421 12.4739 97.2878 13.1741 97.2878 14.1994C97.2878 14.6493 97.4678 15.4745 99.1424 15.9495L101.195 16.5995C105.377 17.8 105.98 20.1506 105.93 21.801C105.881 25.2263 102.775 26.852 99.7185 26.852C95.9645 26.852 93.4573 24.6268 93.4573 21.5255H97.1392" fill="white"/>
<path d="M123.089 9.34839H126.168L128.274 26.5768H124.592L123.39 16.2497L119.357 24.6015H116.526L112.47 16.2497L111.241 26.5768H107.564L109.693 9.34839H112.722L117.93 20.4507L123.089 9.34839Z" fill="white"/>
<path d="M139.532 19.3255L137.704 13.3244L135.949 19.3255H139.532ZM134.747 22.5008L133.221 26.5769H129.314L135.723 9.34839H139.707L146.094 26.5769H142.237L140.706 22.5008H134.747V22.5008Z" fill="white"/>
<path d="M151.235 12.5737V17.4251H154.34C155.767 17.4251 156.519 16.1244 156.519 14.9994C156.519 13.9243 155.821 12.5737 154.439 12.5737H151.235ZM160.327 26.5769H155.92L152.063 20.6256H151.235V26.5769H147.557V9.34839H154.615C158.522 9.34839 160.35 12.1736 160.35 14.9994C160.35 17.4502 158.999 19.8503 156.046 20.4751L160.327 26.5769Z" fill="white"/>
<path d="M161.596 9.34839H174.618V12.6487H169.96V26.5768H166.251V12.6487H161.596V9.34839Z" fill="white"/>
<path d="M78.0001 9.29175H81.259C82.4158 10.5282 83.3431 11.8182 84.0722 13.1769C83.199 14.9572 82.6363 16.7815 82.2718 18.6067C81.4841 15.4241 79.9491 12.7562 77.1089 10.3323L75.8891 9.29184H78.0001" fill="white"/>
<path d="M85.6297 13.1769C86.3588 11.8182 87.2861 10.5287 88.4474 9.29175H93.8128L92.593 10.3322C89.7527 12.7561 88.2223 15.4241 87.4301 18.6067C86.8495 20.9488 86.6695 23.5691 86.665 26.5768H83.0415C83.046 22.0922 83.4376 18.2413 84.851 14.8223C85.0805 14.2632 85.3416 13.7144 85.6297 13.1769Z" fill="white"/>
</g>
<defs>
<clipPath id="clip0">
<rect width="169" height="18" fill="white" transform="translate(6 9)"/>
</clipPath>
</defs>
</svg>
