<svg id="Layer_1" data-name="Layer 1" xmlns="http://www.w3.org/2000/svg" width="180" height="33" viewBox="0 0 180 33"><defs><style>.cls-1{fill:#fff;}</style></defs><title>rentomojo</title><path class="cls-1" d="M48.3,1.2H17.4a3.6,3.6,0,0,0-3.6,3.6h0V26l-4,6.9h35a3.6,3.6,0,0,0,3.6-3.6V8l4-6.8ZM26.4,13.6c-1.3.1-2.5,1.2-2.5,3.8v6.2H20.5V10.4H21a2.61,2.61,0,0,1,2.8,2,3.8,3.8,0,0,1,3.8-2.1h1l-1.9,3.3ZM41.6,17v6.8h-.5c-1.9,0-3-1-3-3.4V16.6c0-1.9-.9-3.1-2.6-3.1s-2.7,1.1-2.7,3.8v6.3H29.3v-7c0-1.5-.5-2.6-1.7-3l1.9-3.2a4.61,4.61,0,0,1,2.7,2.2,5.29,5.29,0,0,1,4.6-2.3c3.4,0,4.8,2.5,4.8,5.8Z"/><path class="cls-1" d="M146.3,11.5a6.4,6.4,0,0,1,6.7,6.09c0,.17,0,.34,0,.51a6.7,6.7,0,0,1-13.4,0,6.4,6.4,0,0,1,6.19-6.6Zm0,10.1a3.4,3.4,0,0,0,3.5-3.3v-.2a3.5,3.5,0,0,0-6.9-1.18,3.34,3.34,0,0,0,0,1.18,3.4,3.4,0,0,0,3.3,3.5Zm11.6,1.6a6.11,6.11,0,0,1-3.4,5.8l-2-2.2a3.79,3.79,0,0,0,2.1-3.5V11.9h3.3ZM156.2,6.7c1.2,0,1.9.4,1.9,1.6s-.7,1.7-1.9,1.7-1.9-.5-1.9-1.7S155.1,6.7,156.2,6.7Zm10.3,4.8a6.4,6.4,0,0,1,6.7,6.09c0,.17,0,.34,0,.51a6.7,6.7,0,0,1-13.4,0A6.4,6.4,0,0,1,166,11.5Zm0,10.1a3.4,3.4,0,0,0,3.5-3.3v-.2a3.5,3.5,0,1,0-6.9-1.18,3.34,3.34,0,0,0,0,1.18,3.4,3.4,0,0,0,3.3,3.5ZM78.5,23a8.26,8.26,0,0,1-5.2,1.7c-4.7,0-6.8-2.9-6.8-6.5a6.3,6.3,0,0,1,6-6.6h.62c3.8,0,5.6,2.3,5.6,5.2a12.12,12.12,0,0,1-.3,2.4H69.9a3.09,3.09,0,0,0,3.4,2.7,6.83,6.83,0,0,0,3.1-.8.9.9,0,0,1,1.2.4Zm-3.1-6.8c0-1-.8-1.9-2.4-1.9a2.8,2.8,0,0,0-3,2.3h5.4a2.6,2.6,0,0,0,.1-.4ZM98.5,8.7v3.2h5.4a12,12,0,0,0-1.6,2.6H98.5v5.1c0,1.5.6,2.4,1.7,2.4a4.62,4.62,0,0,0,2.3-.6,5.26,5.26,0,0,0,1.2,2.1,8.68,8.68,0,0,1-4.6,1.1c-2.4,0-4-1.5-4-4.4V14.5h-2a11.36,11.36,0,0,0-1.2-2.6h3.2l.4-3.2ZM91.9,20.5V17.2c0-3.1-1.4-5.5-4.6-5.5a5.22,5.22,0,0,0-4,1.7V11.9H80V24.3h3.3V18.6c0-2.4,1.4-3.9,2.8-3.9s2.5,1.1,2.5,3v3.6c0,2.3,1,3.3,2.9,3.3H92Z"/><path class="cls-1" d="M109.9,11.5a6.4,6.4,0,0,1,6.7,6.09c0,.17,0,.34,0,.51a6.7,6.7,0,1,1-13.4,0,6.4,6.4,0,0,1,6.19-6.6Zm0,10.1a3.4,3.4,0,0,0,3.5-3.3v-.2a3.5,3.5,0,1,0-6.9-1.18,3.34,3.34,0,0,0,0,1.18,3.4,3.4,0,0,0,3.3,3.5ZM67.3,12.5a4.22,4.22,0,0,0-2.4-.9,3.2,3.2,0,0,0-3.1,1.9A2.5,2.5,0,0,0,59,11.7h-.5V24.3h3.3v-6c0-2.6,1.3-3.6,2.7-3.6h1.1A8.88,8.88,0,0,1,67.3,12.5Zm66.2-.8a5,5,0,0,0-4.4,2.2c-.6-1.5-2.4-2.2-4.5-2.2h-.2a4,4,0,0,0-3.5,1.9,2.49,2.49,0,0,0-2.7-1.9h-.5V24.3H121v-6c0-2.6,1.3-3.6,2.7-3.6a2.59,2.59,0,0,1,2.5,2.9v6.6h3.3v-6c0-2.5,1.2-3.6,2.6-3.6s2.5,1.1,2.5,3v3.6c0,2.3,1,3.3,2.9,3.3h.5V17.2c.1-3.1-1.2-5.5-4.5-5.5Z"/></svg>