<?xml version="1.0" encoding="utf-8"?>
<!-- Generator: Adobe Illustrator 19.0.0, SVG Export Plug-In . SVG Version: 6.00 Build 0)  -->
<svg version="1.1" id="Layer_1" xmlns="http://www.w3.org/2000/svg" xmlns:xlink="http://www.w3.org/1999/xlink" x="0px" y="0px"
	 width="134px" height="47px" viewBox="-17 157 134 47" style="enable-background:new -17 157 134 47;" xml:space="preserve">
<style type="text/css">
	.st0{fill:#FF5F2E;}
	.st1{fill:#23354C;}
</style>
<g>
	<g>
		<g>
			<path class="st0" d="M98.3,192.3c0-0.2,0.2-0.4,0.3-0.5c0.2-0.1,0.3-0.2,0.5-0.2s0.3,0,0.4,0.1c0.1,0.1,0.2,0.3,0.1,0.5
				c0,0.1-0.1,0.2-0.2,0.3c-0.1,0.1-0.3,0.2-0.4,0.2c-0.2,0-0.3,0-0.5,0C98.4,192.6,98.3,192.5,98.3,192.3z"/>
			<path class="st0" d="M100.4,184.8c0-0.1,0-0.2,0.1-0.2s0.2,0,0.2,0c0.1,0,0.2,0.1,0.3,0.2c0.1,0.1,0.1,0.1,0.2,0.2
				c0,0.4,0,1,0,1.7c-0.1,0.7-0.1,1.6-0.1,2.7c0.1-0.3,0.2-0.6,0.3-0.9c0.1-0.3,0.3-0.7,0.4-1.1c0.2-0.4,0.3-0.7,0.5-1
				s0.4-0.6,0.6-0.7c0.2-0.2,0.4-0.3,0.5-0.3c0.2,0,0.3,0.1,0.5,0.4c0,0.1,0.1,0.2,0.1,0.5c0,0.2,0,0.5,0,0.9c0,0.3,0,0.7,0,1.2
				c0,0.4,0,0.9,0.1,1.3c0.1-0.3,0.3-0.7,0.5-1.2c0.2-0.4,0.4-0.8,0.6-1.1s0.4-0.6,0.7-0.8s0.5-0.2,0.8-0.1c0.1,0,0.2,0.2,0.3,0.4
				c0,0.2,0.1,0.5,0.1,0.9c0,0.3,0.1,0.7,0.1,1.1c0,0.4,0.1,0.7,0.2,1c0.1,0.3,0.3,0.5,0.5,0.7s0.5,0.2,0.8,0.2c0.2,0,0.3,0,0.4,0
				s0.2,0,0.2,0s0.1,0,0,0.1v0.1c-0.6,0.3-1.1,0.4-1.4,0.3c-0.4-0.1-0.7-0.3-0.9-0.7c-0.2-0.3-0.4-0.8-0.5-1.2
				c-0.1-0.5-0.1-1-0.2-1.4c0-0.2-0.1-0.3-0.2-0.3s-0.2,0.2-0.4,0.4c-0.2,0.2-0.3,0.5-0.5,0.8c-0.2,0.3-0.3,0.6-0.5,1
				c-0.2,0.3-0.3,0.7-0.4,1c-0.1,0.3-0.2,0.6-0.3,0.8c-0.1,0.1-0.2,0.2-0.4,0.1c-0.2-0.1-0.3-0.2-0.3-0.4c-0.1-0.3-0.1-0.6-0.1-0.9
				c0-0.4,0-0.7,0-1.1c0-0.4,0-0.7,0-1.1s0-0.7,0-0.9s0-0.4-0.1-0.5c0-0.1-0.1-0.1-0.3,0.1c-0.3,0.4-0.5,0.9-0.7,1.4
				s-0.4,1.1-0.6,1.6c-0.2,0.6-0.3,1.1-0.4,1.7c-0.1,0.6-0.2,1.1-0.2,1.5c-0.3,0.1-0.5,0-0.6-0.1s-0.2-0.3-0.3-0.4
				c0-0.2,0.1-0.6,0.1-1.2c0-0.6,0-1.3,0.1-2c0-0.8,0-1.5,0.1-2.3C100.4,186.1,100.4,185.4,100.4,184.8z"/>
			<path class="st0" d="M110.8,186.1c0,0,0.2-0.1,0.4-0.1c0.2-0.1,0.4-0.1,0.5,0c0.5,0,0.8,0.1,1.1,0.4c0.2,0.3,0.3,0.7,0.1,1.5
				c-0.3,0.8-0.7,1.5-1.2,2s-1.1,1.1-1.8,1.5c0.2,0.4,0.4,0.6,0.7,0.7c0.3,0,0.7,0,1-0.2c0.3-0.2,0.7-0.4,1-0.6
				c0.3-0.3,0.6-0.5,0.8-0.7c0.3-0.3,0.6-0.5,0.8-0.7c0.2-0.2,0.4-0.4,0.6-0.7h0.1c0,0,0,0.1,0,0.2c0,0.1,0,0.2-0.1,0.3
				c0,0.1-0.1,0.2-0.1,0.3s-0.1,0.2-0.2,0.3c-0.1,0.1-0.2,0.2-0.3,0.4c-0.1,0.1-0.3,0.3-0.5,0.6c-0.2,0.2-0.5,0.4-0.7,0.7
				c-0.2,0.2-0.5,0.4-0.7,0.6c-0.2,0.2-0.5,0.3-0.8,0.3c-0.3,0.1-0.6,0.1-1,0c-0.3-0.1-0.6-0.2-0.8-0.4c-0.2-0.1-0.3-0.3-0.4-0.4
				c-0.1-0.1-0.2-0.3-0.2-0.4c0-0.1-0.1-0.2-0.1-0.3c-0.1-0.3-0.1-0.7-0.1-1.3c0-0.5,0.2-1.2,0.5-2.1c0.2-0.4,0.4-0.8,0.7-1.1
				C110.4,186.6,110.4,186.3,110.8,186.1z M109.7,190.3c0.2-0.1,0.4-0.3,0.7-0.5c0.3-0.2,0.5-0.4,0.8-0.7c0.2-0.3,0.5-0.6,0.6-0.9
				c0.2-0.3,0.3-0.7,0.3-1c0-0.2,0-0.4,0-0.5l-0.1-0.1c-0.3-0.1-0.5-0.1-0.8,0.1c-0.3,0.2-0.5,0.5-0.7,0.9c-0.2,0.4-0.4,0.8-0.6,1.3
				C109.8,189.5,109.7,189.9,109.7,190.3z"/>
		</g>
		<g>
			<path class="st1" d="M47.1,189c-0.1-0.8-0.2-1.7-0.3-2.6c-0.1-1-0.2-2-0.3-3s-0.2-2-0.2-2.9c-0.1-0.9-0.1-1.7-0.2-2.3
				c0-0.5-0.1-1-0.1-1.2c0.4-0.1,5-1.4,5.4-1.4c0.8-0.2,0.8-1.7-0.1-1.6c-0.2,0-4.9,1.1-5.4,1.2c0-0.3-0.1-0.8-0.1-1.3
				c0-0.7-0.1-1.4-0.1-2.2c0-0.8-0.1-1.6-0.1-2.6c0-0.9-0.1-1.7-0.1-2.5v-0.5c0-0.6-0.1-1-0.1-1.4c0-0.7-0.1-0.9-0.1-1v-0.1h-0.1
				c-0.3-0.1-0.7-0.2-1.1-0.1c-0.4,0-0.7,0.1-0.8,0.1h-0.1v0.1c0,0.1,0,0.2,0,0.3c0,0.1,0,0.1,0,0.2c0,0,0,0.1,0.1,0.1
				c0,0,0,0.1,0.1,0.3c0.1,0.5,0.2,1.2,0.3,2.2s0.2,2,0.2,3.2c0.1,1.1,0.1,2.2,0.2,3.3c0,1,0,1.8,0,2.4c-1.1,0.2-2,0.5-2.8,0.7
				c-0.7,0.2-1.3,0.4-1.9,0.5c0-1.2-0.1-2.3-0.1-3.2c-0.1-1-0.2-2-0.2-3c-0.1-0.9-0.1-1.9-0.2-2.8c-0.1-0.9-0.1-2,0-3.1v-0.1h-0.1
				c-0.5-0.2-1-0.2-1.5,0.1c-0.4,0.2-0.7,0.5-0.9,0.7v0.1v0.1c0.2,1,0.4,1.9,0.5,2.8c-0.1,0.6,0,1.5,0.1,2.4
				c0.1,0.9,0.2,1.9,0.2,2.9c0.1,1,0.1,2.2,0.2,3.4c-0.3,0.1-0.6,0.2-0.8,0.3c-0.2,0.1-0.5,0.2-0.7,0.2c-0.2,0.1-0.5,0.1-0.8,0.2
				c-0.3,0.1-0.6,0.1-1,0.2H34v0.1c-0.1,0.2-0.2,0.5-0.3,0.7c-0.1,0.3-0.1,0.4,0,0.5l0.1,0.1l0,0c0.2,0.2,0.7,0.2,1.4,0
				c0.7-0.1,1.5-0.4,2.5-0.7c0,0.9,0.1,2,0.1,3.1c0,1.3,0,2.5,0,3.6v3c0,1.2,0,1.4,0,1.5v0.2H38c0.2,0,0.5-0.1,0.8-0.2
				c0.3-0.1,0.6-0.2,0.9-0.4l0.1-0.1v-0.1c0-1.2-0.1-2.4-0.1-3.4v-1.1c0-1.3-0.1-2.2-0.1-2.8c-0.1-0.9-0.1-1.7-0.1-2.3
				c0-0.5,0-1.1,0-1.6c0.6-0.1,1.1-0.3,1.5-0.3c0.5-0.1,0.9-0.2,1.2-0.3c0.4-0.1,0.7-0.2,1.1-0.2l1-0.2c0,0.2,0,0.6,0,1
				c0,0.6,0.1,1.2,0.1,2c0.1,0.8,0.1,1.6,0.2,2.4c0.1,0.8,0.1,1.6,0.2,2.4c0.1,0.8,0.1,1.4,0.2,2c0,0.6,0.1,1,0.1,1.3
				c0.1,0.6,0.1,1.1,0.2,1.5c0,0.4,0.1,0.8,0.1,1c0.1,0.3,0.1,0.6,0.2,0.9c0.1,0.3,0.2,0.6,0.3,0.9v0.1H46c0,0.4,0.2,0.4,0.4,0.4
				c0.1,0,0.2,0,0.4,0c0.3-0.1,0.6-0.2,0.9-0.3l0.2-0.1v-0.2C47.7,192.1,47.2,189.8,47.1,189z"/>
			<g>
				<path class="st1" d="M56.1,182.1c-0.3-0.3-0.7-0.6-1.2-0.9c-0.5-0.2-1-0.5-1.6-0.7s-1.2-0.3-1.7-0.5c-0.6-0.1-1.1-0.2-1.6-0.2
					h-0.1c0,0-0.3,3.3-0.3,4.4c-0.1,1.1,0,2.3,0,3.6c0,0.3,0.1,0.7,0.2,1.1c0.1,0.4,0.3,0.9,0.5,1.3c0.2,0.4,0.6,0.8,1,1
					c0.4,0.3,0.9,0.4,1.5,0.4c0.4,0,0.8-0.2,1.2-0.6c0.4-0.4,0.8-0.9,1.1-1.5c0.3-0.6,0.6-1.3,0.9-2s0.5-1.5,0.6-2.2
					s0.2-1.4,0.1-1.9S56.4,182.4,56.1,182.1z M52.1,189.7c-0.2-0.1-0.3-0.1-0.4-0.2s-0.2-0.2-0.3-0.3c-0.1-0.1-0.2-0.4-0.3-1
					c0-0.5-0.1-1.1-0.1-1.7c0-0.7,0-1.4,0.1-2.2c0.1-0.7,0.3-1.5,0.5-2.2c0.5,0.1,0.8,0.2,1.1,0.3c0.3,0.1,0.6,0.2,0.8,0.2
					c0.2,0.1,0.4,0.1,0.5,0.2c0.1,0.1,0.3,0.2,0.5,0.3c0.2,0.2,0.4,0.5,0.5,0.9s0.1,0.9,0,1.5s-0.3,1.2-0.6,1.9
					c-0.3,0.7-0.7,1.3-1.3,1.9c-0.2,0.2-0.4,0.3-0.6,0.4C52.4,189.7,52.3,189.7,52.1,189.7z"/>
				<path class="st1" d="M68.2,182.3c0.1-0.4,0-0.6-0.1-0.8c-0.1-0.2-0.3-0.3-0.5-0.4c-0.1-0.1-0.3-0.1-0.4-0.2
					c-0.5-0.2-1.1-0.3-1.7-0.1c-0.5,0.1-1.1,0.4-1.6,0.8c-0.5,0.4-1,0.8-1.5,1.3s-0.9,1-1.2,1.6c-0.4,0.5-0.7,1-0.9,1.5
					c0,0.1-0.1,0.2-0.1,0.3c-0.1-1.4-0.3-2.6-0.4-3.5c-0.1-1.1-0.3-1.9-0.4-2.4c0,0-0.1-0.3-0.5-0.5c-0.2-0.1-0.5-0.2-1-0.2h-0.2
					v0.2c0.1,0.3,0.1,0.7,0.2,1c0.1,0.4,0.1,0.7,0.2,1l0.1,0.8v0.4c0.1,0.6,0.2,1.5,0.2,2.7c0.1,1.2,0.1,2.5,0.2,3.8
					c0.1,1.4,0.1,2.8,0.1,4.3c0,1.4,0.1,2.8,0.1,4v5.4c0.4,0.2,0.8,0.2,1,0.2c0.2,0,0.4-0.1,0.6-0.2V202c0-1.1,0-2.4-0.1-4.1
					c0-1.6-0.1-3.6-0.1-6c0.6,0.1,1.4-0.1,2.2-0.4c0.9-0.4,1.8-0.9,2.7-1.7c0.9-0.8,1.6-1.7,2.2-2.8c0.6-1.1,1-2.3,1-3.7
					C68.3,182.9,68.3,182.6,68.2,182.3z M66.4,185.5c-0.3,0.7-0.8,1.5-1.4,2.2c-0.7,0.7-1.6,1.4-2.7,1.8c-0.4,0.2-0.8,0.3-1,0.4
					h-0.6c-0.1,0-0.2-0.1-0.3-0.2c0-0.4,0.2-1,0.4-1.6c0.3-0.6,0.6-1.3,1-1.9c0.4-0.6,0.8-1.2,1.2-1.7c0.4-0.5,0.7-0.9,0.9-1.1
					c0.4-0.3,0.9-0.7,1.3-0.9s0.8-0.2,1.3,0.1c0.1,0.1,0.3,0.3,0.3,1C66.8,184.2,66.7,184.8,66.4,185.5z"/>
				<path class="st1" d="M80.7,179.6c-0.2,0.1-0.4,0.3-0.6,0.5c-0.2,0.2-0.3,0.4-0.4,0.4l0,0v0.1c0,0.4,0,1-0.1,1.8
					c-0.1,0.8-0.2,1.6-0.3,2.3c-0.1,0.8-0.3,1.4-0.5,2c-0.1,0.4-0.3,0.7-0.5,0.6c-0.1,0-0.2-0.1-0.6-0.7c-0.3-0.5-0.6-1-0.9-1.6
					s-0.5-1.1-0.8-1.6c-0.2-0.5-0.4-0.8-0.5-0.9c-0.1-0.4-0.3-0.7-0.5-0.8c-0.2-0.1-0.3-0.1-0.4-0.1c-0.2,0.1-0.3,0.2-0.4,0.5
					c-0.4,1.7-0.8,3.1-1.2,4.1c-0.3,1-0.6,1.8-0.9,2.4c-0.3,0.7-0.5,1-0.6,1.1c-0.2,0.2-0.2,0.2-0.2,0.2s-0.1-0.1-0.2-0.4
					c-0.1-0.4-0.1-0.9-0.2-1.4c0-0.6-0.1-1.1-0.1-1.7c0-0.6,0-1.1,0-1.4c-0.1-1.2-0.1-2.2,0-3c0-0.9,0.1-1.5,0.1-2s0.1-0.9,0.1-1.1
					c0-0.1,0-0.3-0.1-0.4c-0.1,0-0.1-0.1-0.2-0.1s-0.2,0-0.4,0c-0.2,0-0.3,0.1-0.5,0.2c-0.2,0.1-0.3,0.2-0.5,0.3
					c-0.2,0.1-0.2,0.3-0.2,0.6v1.5c0,0.7,0,1.5,0,2.4c0,0.9,0.1,1.8,0.1,2.8c0.1,1,0.2,1.9,0.3,2.8c0.1,0.9,0.3,1.7,0.5,2.3
					c0.2,0.7,0.5,1.2,0.8,1.4l0,0l0,0h0.1c0.4,0,0.7-0.3,1.1-0.9c0.4-0.6,0.8-1.3,1.1-2.1c0.4-0.8,0.7-1.7,1-2.6
					c0.2-0.7,0.4-1.4,0.6-2c0.1,0.2,0.2,0.4,0.3,0.6c0.2,0.5,0.5,1.1,0.8,1.6s0.6,1,1,1.5s0.8,0.7,1.1,0.7c0.3,0,0.6-0.2,1-0.7
					c0.3-0.4,0.6-1.1,0.9-1.9c0.8-0.8,1.1-1.8,1.2-2.8c0.2-1.1,0.3-2.2,0.3-3.5c0.2-0.7,0.1-0.9,0-1
					C81.3,179.5,81.1,179.3,80.7,179.6z"/>
				<path class="st1" d="M84.3,176.9c0.2-0.3,0.3-0.5,0.2-1c0-0.3-0.1-0.4-0.3-0.5c-0.1-0.1-0.2-0.1-0.4-0.1
					c-0.5,0.2-0.8,0.5-1.1,0.7c-0.5,0.6-0.5,1-0.5,1c0,0.4,0.2,0.7,0.5,0.8C83.3,178,84,177.3,84.3,176.9z"/>
				<path class="st1" d="M85,190.3c-0.1-0.5-0.2-1.1-0.3-1.9c-0.1-1.6-0.2-3.1-0.3-4.6c-0.1-1.5-0.1-2.8-0.3-4.1v-0.1H84
					c-0.5-0.1-0.9,0.2-1,0.2c-0.4,0.3-0.5,0.6-0.5,0.6c0,0.6,0.1,1.4,0.2,2.5c0.1,1,0.1,2.1,0.2,3.2s0.1,2.1,0.2,3.1s0.1,1.6,0.2,2
					v0.1h0.1c0.2,0.1,0.4,0.2,0.7,0.3c0.1,0.1,0.3,0.1,0.5,0.1s0.3,0,0.5-0.1h0.2v-0.2C85.2,191.2,85.1,190.7,85,190.3z"/>
				<path class="st1" d="M98.2,180c-0.1-0.3-0.3-0.5-0.7-0.5c-1.1,0.1-2.3,0.2-3.3,0.3c-1,0.1-2,0.2-3,0.2c0-0.3,0-0.7,0-1.1
					c0-0.5,0-1,0-1.5s0-1-0.1-1.4c0-0.5-0.1-0.8-0.2-1.1c-0.1-0.2-0.2-0.3-0.4-0.4c-0.2-0.1-0.4-0.1-0.6-0.1s-0.4,0.1-0.5,0.1
					c-0.3,0.1-0.3,0.3-0.3,0.5c0,0.5,0,1,0,1.3s0,0.7,0.1,1c0,0.3,0.1,0.7,0.1,1.2c0,0.4,0,1,0.1,1.7c-0.6,0.1-1.3,0.1-1.9,0.1
					c-0.8,0-1.3,0.1-1.7,0.2c-0.3,0.1-0.5,0.1-0.6,0.2c-0.1,0.1-0.2,0.2-0.2,0.3c0,0.1,0,0.2,0,0.3c0,0.1,0,0.2,0,0.3v0.1l0.1,0.1
					c0.2,0.2,0.4,0.3,0.4,0.4c0.1,0.1,0.3,0.1,0.6,0.1c0.2,0,0.6-0.1,1.1-0.2s1.3-0.2,2.3-0.3c0.1,0.9,0.1,1.8,0.2,2.9
					c0.1,1.1,0.1,2.3,0.3,3.3c0.1,1.1,0.4,2,0.6,2.8c0.3,0.8,0.8,1.4,1.4,1.5c0.4,0.1,0.7,0.2,1.1,0.2c0.1,0,0.2,0,0.3,0
					c0.4,0,0.8-0.1,1.1-0.3c0.3-0.1,0.6-0.3,0.9-0.5c0.2-0.2,0.4-0.4,0.6-0.6c0.1-0.2,0.6-0.6,0.3-1c-0.1-0.2-0.2-0.2-0.3-0.2
					c-0.1,0-0.3,0-0.4,0.2c-0.2,0.2-0.4,0.5-0.7,0.7c-0.2,0.2-0.5,0.4-0.8,0.5c-0.3,0.1-0.6,0.1-0.9,0.1c-0.3-0.1-0.6-0.3-1-0.7
					c-0.2-0.6-0.4-1.3-0.5-2c-0.1-0.7-0.2-1.5-0.2-2.3s-0.1-1.6-0.1-2.4c0-0.8,0-1.5-0.1-2.3c1-0.3,2.2-0.5,3.3-0.6
					c1.2-0.2,2.3-0.3,3.3-0.4c0.2,0,0.3-0.1,0.4-0.2C98.3,180.3,98.3,180.2,98.2,180z"/>
			</g>
			<path class="st1" d="M56.7,172.9c-0.1-0.2-0.3-0.4-0.5-0.5L50,170c-0.5-0.2-1,0.1-1.1,0.5c-0.1,0.3,0,0.8,0.5,1l5.3,2l-3,4.7
				c-0.1,0.2-0.2,0.4-0.1,0.6s0.4,0.4,0.8,0.4c0,0,0,0,0.1,0c0.3,0,0.6-0.1,0.8-0.4l3.5-5.4C56.7,173.3,56.7,173.1,56.7,172.9z"/>
		</g>
	</g>
	<g>
		<path class="st1" d="M-11.2,162.5c2.5-2.1,8.1-3.1,17-3.1s14.7,1.2,17.4,3.5c2.7,2.3,4.1,7.2,4.1,14.6v4.8
			c0,8.4-1.4,13.7-4.1,15.9c-2.7,2.2-8.5,3.3-17.4,3.3s-14.6-1.1-17-3.3c-2.5-2.2-3.7-7.5-3.7-15.9v-4.8
			C-14.9,169.6-13.7,164.6-11.2,162.5z"/>
		<path class="st0" d="M12.3,176.2c-0.2,0-4.9,1.1-5.4,1.2c0-0.3-0.1-0.8-0.1-1.3c0-0.7-0.1-1.4-0.1-2.2c0-0.8-0.1-1.6-0.1-2.6
			c0-0.9-0.1-1.7-0.1-2.5v-0.5c0-0.6-0.1-1-0.1-1.4c0-0.7-0.1-0.9-0.1-1v-0.1H6.2c-0.3-0.1-0.7-0.2-1.1-0.1c-0.4,0-0.6,0.1-0.8,0.1
			H4.2v0.1c0,0.1,0,0.2,0,0.3c0,0.1,0,0.1,0,0.2c0,0,0,0.1,0.1,0.1c0,0,0,0.1,0.1,0.3c0.1,0.5,0.2,1.2,0.3,2.2c0.1,1,0.2,2,0.2,3.2
			c0.1,1.1,0.1,2.2,0.2,3.3c0,1,0,1.8,0,2.4c-1.1,0.2-2,0.5-2.8,0.7c-0.7,0.2-1.3,0.4-1.9,0.5c0-1.2-0.1-2.2-0.1-3.2
			c-0.1-1-0.2-2-0.2-2.9c-0.1-0.9-0.1-1.9-0.2-2.8c-0.1-0.9-0.1-2,0-3.1V167h-0.1c-0.5-0.2-1-0.2-1.5,0.1c-0.4,0.2-0.7,0.5-0.9,0.7
			v0.1v0.1c0.2,1,0.4,1.9,0.5,2.8c0.1,0.8,0.2,1.7,0.3,2.6c0.1,0.9,0.2,1.9,0.2,2.9c0.1,1,0.1,2.2,0.2,3.4c-0.3,0.1-0.6,0.2-0.8,0.3
			c-0.3-0.1-0.5,0-0.8,0c-0.2,0.1-0.5,0.1-0.8,0.2c-0.3,0.1-0.6,0.1-1,0.2h-0.1v0.1c-0.1,0.2-0.2,0.5-0.3,0.7
			c-0.1,0.3-0.1,0.4,0,0.5l0.1,0.1l0,0c0.2,0.2,0.7,0.2,1.4,0c0.7-0.1,1.5-0.4,2.4-0.7c0,0.9,0.1,2,0.1,3.1c0,1.3,0,2.5,0,3.6v3
			c0,1.2,0,1.4,0,1.5v0.2H-1c0.2,0,0.5-0.1,0.8-0.2c0.3-0.1,0.6-0.2,0.9-0.4l0.1-0.1v-0.1c0-1.2-0.1-2.4-0.1-3.4v-1.1
			c0-1.3-0.1-2.2-0.1-2.8c-0.1-0.9-0.1-1.7-0.1-2.3c0-0.5,0-1.1,0-1.5c0.6-0.1,1.1-0.3,1.5-0.3c0.5-0.1,0.9-0.2,1.2-0.3
			c0.4-0.1,0.7-0.2,1.1-0.2l1-0.2c0,0.2,0,0.6,0,1c0,0.6,0.1,1.2,0.1,2c0.1,0.8,0.1,1.5,0.2,2.4c0.1,0.8,0.1,1.6,0.2,2.4
			s0.1,1.4,0.2,2c0,0.6,0.1,1,0.1,1.3c0.1,0.6,0.1,1.1,0.2,1.4c0,0.4,0.1,0.8,0.1,1c0.1,0.3,0.1,0.6,0.2,0.9
			c0.1,0.3,0.2,0.6,0.3,0.9v0.1H7c0.2,0.1,0.3,0.1,0.6,0.1c0.1,0,0.2,0,0.4,0c0.3-0.1,0.6-0.2,0.9-0.3l0.2-0.1v-0.2
			c-0.1-0.5-0.6-2.8-0.7-3.6s-0.2-1.7-0.3-2.6c-0.1-1-0.2-1.9-0.3-3c-0.1-1-0.2-2-0.2-2.9c-0.1-0.9-0.1-1.7-0.2-2.3
			c0-0.5-0.1-1-0.1-1.2c0.4-0.1,5-1.4,5.4-1.4C13.1,177.6,13.2,176.1,12.3,176.2z"/>
		<path class="st0" d="M17.7,175.2c-0.1-0.2-0.3-0.4-0.5-0.5l-6.2-2.4c-0.5-0.2-1,0.1-1.1,0.5c-0.1,0.3,0,0.8,0.5,1l5.3,2l-3,4.7
			c-0.1,0.2-0.2,0.4-0.1,0.6c0.1,0.2,0.4,0.4,0.8,0.4c0,0,0,0,0.1,0c0.3,0,0.6-0.1,0.8-0.4l3.5-5.4
			C17.7,175.5,17.7,175.3,17.7,175.2z"/>
	</g>
</g>
</svg>
