<svg id="Layer_1" data-name="Layer 1" xmlns="http://www.w3.org/2000/svg" xmlns:xlink="http://www.w3.org/1999/xlink" width="180" height="50" viewBox="0 0 180 50"><defs><style>.cls-1{fill:none;}.cls-2{fill:#7100f4;}.cls-3{fill:#fff;}.cls-4{clip-path:url(#clip-path);}.cls-5{isolation:isolate;}</style><clipPath id="clip-path"><path class="cls-1" d="M40.34,23.89a11.3,11.3,0,0,1-20,7.19h9a8.13,8.13,0,0,0,2.89-.45,3.24,3.24,0,0,0,2.17-4,3.42,3.42,0,0,0-.5-1,8.11,8.11,0,0,0-2-2.09L29,21.38c-.56-.43-.45-.78.26-.78H42.92a.38.38,0,0,0,.41-.35.39.39,0,0,0,0-.15,14.76,14.76,0,0,0-29,3.78v.75a.55.55,0,0,0,.55.51H17.3a.45.45,0,0,0,.47-.45v-.81a11.3,11.3,0,0,1,20-7.19h-9a8.13,8.13,0,0,0-2.89.45,3.24,3.24,0,0,0-2.17,4,3.42,3.42,0,0,0,.5,1,8.11,8.11,0,0,0,2,2.09l2.89,2.16c.57.42.45.77-.26.77H15.16a.38.38,0,0,0-.41.35.39.39,0,0,0,0,.15,14.76,14.76,0,0,0,29-3.78v-.75a.55.55,0,0,0-.55-.51H40.79a.45.45,0,0,0-.47.45v.81Z"/></clipPath></defs><title>logo</title><rect class="cls-2" x="5.76" y="1.3" width="47.43" height="47.43" rx="3.21" ry="3.21"/><path class="cls-3" d="M40.34,23.89a11.3,11.3,0,0,1-20,7.19h9a8.13,8.13,0,0,0,2.89-.45,3.24,3.24,0,0,0,2.17-4,3.42,3.42,0,0,0-.5-1,8.11,8.11,0,0,0-2-2.09L29,21.38c-.56-.43-.45-.78.26-.78H42.92a.38.38,0,0,0,.41-.35.39.39,0,0,0,0-.15,14.76,14.76,0,0,0-29,3.78v.75a.55.55,0,0,0,.55.51H17.3a.45.45,0,0,0,.47-.45v-.81a11.3,11.3,0,0,1,20-7.19h-9a8.13,8.13,0,0,0-2.89.45,3.24,3.24,0,0,0-2.17,4,3.42,3.42,0,0,0,.5,1,8.11,8.11,0,0,0,2,2.09l2.89,2.16c.57.42.45.77-.26.77H15.16a.38.38,0,0,0-.41.35.39.39,0,0,0,0,.15,14.76,14.76,0,0,0,29-3.78v-.75a.55.55,0,0,0-.55-.51H40.79a.45.45,0,0,0-.47.45v.81Z"/><g class="cls-4"><rect class="cls-3" x="14.28" y="9.13" width="29.52" height="29.52"/></g><g class="cls-5"><g class="cls-5"><path class="cls-2" d="M86.27,16.65a3.12,3.12,0,0,1-1.17,2.57,5.12,5.12,0,0,1-3.26.93,7.7,7.7,0,0,1-3.41-.72V17.06a14.63,14.63,0,0,0,2.06.77,6,6,0,0,0,1.54.22,2.23,2.23,0,0,0,1.29-.32,1.09,1.09,0,0,0,.45-.95,1.05,1.05,0,0,0-.2-.63,2,2,0,0,0-.58-.53,13.14,13.14,0,0,0-1.56-.82,7.65,7.65,0,0,1-1.65-1,3.76,3.76,0,0,1-.88-1.11,3.19,3.19,0,0,1-.33-1.48,3.11,3.11,0,0,1,1.08-2.51,4.51,4.51,0,0,1,3-.91A7,7,0,0,1,84.43,8a12.23,12.23,0,0,1,1.78.62l-.82,2a13.35,13.35,0,0,0-1.59-.55,5.32,5.32,0,0,0-1.24-.15,1.67,1.67,0,0,0-1.11.33,1.12,1.12,0,0,0-.39.88,1.1,1.1,0,0,0,.16.59,1.67,1.67,0,0,0,.5.49,18,18,0,0,0,1.61.84,6.34,6.34,0,0,1,2.31,1.62A3.13,3.13,0,0,1,86.27,16.65Z"/><path class="cls-2" d="M96.74,20H94.23V14.62c0-1.33-.49-2-1.48-2a1.68,1.68,0,0,0-1.52.72,4.38,4.38,0,0,0-.47,2.32V20H88.25V7.2h2.51V9.8c0,.2,0,.68-.06,1.43l-.06.74h.14a2.88,2.88,0,0,1,2.66-1.35,3.27,3.27,0,0,1,2.46.88,3.45,3.45,0,0,1,.84,2.5Z"/><path class="cls-2" d="M103.48,20.15A4.72,4.72,0,0,1,100,18.93a4.65,4.65,0,0,1-1.25-3.47,5.09,5.09,0,0,1,1.15-3.57,4.68,4.68,0,0,1,6.23-.16,4.19,4.19,0,0,1,1.09,3.07V16H101.3a2.45,2.45,0,0,0,.63,1.67,2.24,2.24,0,0,0,1.66.6,7.29,7.29,0,0,0,1.58-.17,7.83,7.83,0,0,0,1.54-.56V19.5a5.61,5.61,0,0,1-1.41.49A8.53,8.53,0,0,1,103.48,20.15Zm-.36-7.74a1.56,1.56,0,0,0-1.24.51,2.24,2.24,0,0,0-.52,1.43h3.52a2.07,2.07,0,0,0-.49-1.43A1.63,1.63,0,0,0,103.12,12.41Z"/><path class="cls-2" d="M117.75,20h-2.5V14.62a2.54,2.54,0,0,0-.36-1.49,1.28,1.28,0,0,0-1.12-.5,1.73,1.73,0,0,0-1.53.7,4.42,4.42,0,0,0-.46,2.34V20h-2.51V10.8h1.91l.34,1.17h.14a2.63,2.63,0,0,1,1.16-1,3.87,3.87,0,0,1,1.67-.35,3.19,3.19,0,0,1,2.43.87,3.47,3.47,0,0,1,.83,2.51Z"/><path class="cls-2" d="M128.69,15.38a5,5,0,0,1-1.18,3.51,4.31,4.31,0,0,1-3.3,1.26,4.72,4.72,0,0,1-2.34-.57,3.92,3.92,0,0,1-1.55-1.67,5.61,5.61,0,0,1-.54-2.53A5,5,0,0,1,121,11.87a4.35,4.35,0,0,1,3.31-1.25,4.65,4.65,0,0,1,2.33.58,3.77,3.77,0,0,1,1.56,1.65A5.58,5.58,0,0,1,128.69,15.38Zm-6.36,0a3.82,3.82,0,0,0,.45,2.06,1.6,1.6,0,0,0,1.46.7,1.57,1.57,0,0,0,1.44-.69,3.89,3.89,0,0,0,.44-2.07,3.79,3.79,0,0,0-.44-2.05,1.62,1.62,0,0,0-1.46-.68,1.58,1.58,0,0,0-1.44.68A3.73,3.73,0,0,0,122.33,15.38Z"/><path class="cls-2" d="M129.45,10.8h2.74L133.93,16a6.82,6.82,0,0,1,.3,1.59h.05a7.36,7.36,0,0,1,.35-1.59l1.71-5.17H139l-3.89,10.37a4.57,4.57,0,0,1-1.53,2.15,3.82,3.82,0,0,1-2.31.72A6,6,0,0,1,130,23.9v-2a4.37,4.37,0,0,0,1,.1,1.78,1.78,0,0,0,1.16-.4,2.78,2.78,0,0,0,.78-1.23l.15-.46Z"/><path class="cls-2" d="M142.36,8l.12.18A25.11,25.11,0,0,1,141,12.09h-1.8c.38-1.62.65-3,.82-4.12Z"/><path class="cls-2" d="M150.41,17.26a2.55,2.55,0,0,1-1,2.16,4.86,4.86,0,0,1-2.94.73,9.37,9.37,0,0,1-1.71-.13,6.14,6.14,0,0,1-1.32-.4V17.55a9,9,0,0,0,1.57.55,6.33,6.33,0,0,0,1.55.22c.91,0,1.36-.26,1.36-.79a.65.65,0,0,0-.18-.48,2.8,2.8,0,0,0-.63-.42c-.29-.16-.69-.34-1.18-.55a7.18,7.18,0,0,1-1.56-.82,2.27,2.27,0,0,1-.72-.87,2.82,2.82,0,0,1-.23-1.2,2.2,2.2,0,0,1,.95-1.9,4.7,4.7,0,0,1,2.7-.67,7.72,7.72,0,0,1,3.23.73l-.76,1.81c-.46-.2-.89-.36-1.29-.49a4.27,4.27,0,0,0-1.23-.19q-1.11,0-1.11.6a.71.71,0,0,0,.36.59,9.84,9.84,0,0,0,1.57.73,7.48,7.48,0,0,1,1.58.81,2.52,2.52,0,0,1,.74.87A2.7,2.7,0,0,1,150.41,17.26Z"/></g><g class="cls-5"><path class="cls-2" d="M67.14,28.76a4.58,4.58,0,0,0-3.56,1.45,5.74,5.74,0,0,0-1.3,4,5.93,5.93,0,0,0,1.23,4A4.36,4.36,0,0,0,67,39.59a9.73,9.73,0,0,0,2.78-.38V40a9.35,9.35,0,0,1-3,.41,5.06,5.06,0,0,1-4-1.63,6.65,6.65,0,0,1-1.46-4.57,7.12,7.12,0,0,1,.7-3.24,4.94,4.94,0,0,1,2-2.15,5.88,5.88,0,0,1,3-.76,7.36,7.36,0,0,1,3.15.65l-.33.76A6.11,6.11,0,0,0,67.14,28.76Z"/><path class="cls-2" d="M78.5,40.2V34.4a2.82,2.82,0,0,0-.57-2,2.28,2.28,0,0,0-1.76-.61,3.06,3.06,0,0,0-2.35.81,3.84,3.84,0,0,0-.74,2.63V40.2h-.81V27.41h.81v4.07l0,1.14h.06a2.94,2.94,0,0,1,1.26-1.17,4.47,4.47,0,0,1,1.9-.36q3,0,3,3.26V40.2Z"/><path class="cls-2" d="M87.63,40.2l-.21-1.41h-.07A4.36,4.36,0,0,1,86,40a3.71,3.71,0,0,1-1.68.35,2.91,2.91,0,0,1-2.05-.67,2.4,2.4,0,0,1-.73-1.87,2.3,2.3,0,0,1,1.09-2A6,6,0,0,1,85.75,35l1.7-.05v-.59a3.11,3.11,0,0,0-.51-1.93,2,2,0,0,0-1.67-.65,5.61,5.61,0,0,0-2.58.69l-.3-.7a6.81,6.81,0,0,1,2.91-.69,2.91,2.91,0,0,1,2.2.76,3.39,3.39,0,0,1,.73,2.38v6Zm-3.29-.58a2.84,2.84,0,0,0,3.08-3.09v-.88l-1.56.07a5.94,5.94,0,0,0-2.69.59,1.7,1.7,0,0,0-.8,1.55,1.64,1.64,0,0,0,.52,1.3A2.07,2.07,0,0,0,84.34,39.62Z"/><path class="cls-2" d="M97.35,40.2V34.4a2.87,2.87,0,0,0-.56-2A2.29,2.29,0,0,0,95,31.83a3,3,0,0,0-2.35.81,3.79,3.79,0,0,0-.75,2.63V40.2h-.81V31.26h.69L92,32.49h0a3.36,3.36,0,0,1,3.1-1.4c2,0,3,1.09,3,3.26V40.2Z"/><path class="cls-2" d="M106.48,40.2l-.21-1.41h-.06A4.28,4.28,0,0,1,104.82,40a3.65,3.65,0,0,1-1.68.35,2.91,2.91,0,0,1-2-.67,2.44,2.44,0,0,1-.73-1.87,2.33,2.33,0,0,1,1.09-2,6,6,0,0,1,3.16-.76l1.7-.05v-.59a3.1,3.1,0,0,0-.52-1.93,2,2,0,0,0-1.67-.65,5.54,5.54,0,0,0-2.57.69l-.31-.7a6.81,6.81,0,0,1,2.91-.69,2.89,2.89,0,0,1,2.2.76,3.34,3.34,0,0,1,.73,2.38v6Zm-3.29-.58a2.83,2.83,0,0,0,3.08-3.09v-.88l-1.56.07a5.9,5.9,0,0,0-2.68.59,1.91,1.91,0,0,0-.29,2.85A2.09,2.09,0,0,0,103.19,39.62Z"/><path class="cls-2" d="M110.77,36.28l4.57-5h1l-3.52,3.82,3.83,5.12h-1l-3.4-4.51L110.79,37V40.2H110V27.41h.82v6.41l-.06,2.46Z"/><path class="cls-2" d="M116.63,31.26h.84l1.89,5c.57,1.54.94,2.58,1.09,3.11h0c.23-.7.61-1.76,1.13-3.16l1.89-5h.84l-4,10.39a8.13,8.13,0,0,1-.81,1.71,2.18,2.18,0,0,1-.77.66,2.32,2.32,0,0,1-1.07.23,3.5,3.5,0,0,1-1-.18v-.7a4.21,4.21,0,0,0,1,.13,1.41,1.41,0,0,0,.74-.2,2,2,0,0,0,.58-.61,8.78,8.78,0,0,0,.6-1.32c.22-.6.37-1,.44-1.17Z"/><path class="cls-2" d="M131.28,40.2l-.21-1.41H131A4.28,4.28,0,0,1,129.62,40a3.65,3.65,0,0,1-1.68.35,2.91,2.91,0,0,1-2-.67,2.44,2.44,0,0,1-.73-1.87,2.33,2.33,0,0,1,1.09-2,6,6,0,0,1,3.16-.76l1.7-.05v-.59a3.1,3.1,0,0,0-.52-1.93,2,2,0,0,0-1.67-.65,5.54,5.54,0,0,0-2.57.69l-.31-.7a6.81,6.81,0,0,1,2.91-.69,2.89,2.89,0,0,1,2.2.76,3.34,3.34,0,0,1,.73,2.38v6ZM128,39.62a2.83,2.83,0,0,0,3.08-3.09v-.88l-1.56.07a5.9,5.9,0,0,0-2.68.59,1.91,1.91,0,0,0-.29,2.85A2.09,2.09,0,0,0,128,39.62Z"/><path class="cls-2" d="M148.48,34.07a6.11,6.11,0,0,1-1.59,4.58,6.41,6.41,0,0,1-4.66,1.55h-2.88v-12h3.25a5.93,5.93,0,0,1,4.38,1.5A6,6,0,0,1,148.48,34.07Zm-.91,0a5.29,5.29,0,0,0-1.31-3.89,5.25,5.25,0,0,0-3.85-1.3h-2.22V39.46h2Q147.57,39.46,147.57,34.11Z"/><path class="cls-2" d="M154.38,40.2h-.85V29h-3.91v-.79h8.66V29h-3.9Z"/><path class="cls-2" d="M168.77,40.2h-.84V34.29h-7V40.2h-.84v-12h.84v5.34h7V28.18h.84Z"/></g></g></svg>