<svg width="340" height="80" viewBox="0 0 340 80" fill="none" xmlns="http://www.w3.org/2000/svg">
<path d="M153.944 20.3777C154.115 20.1453 154.324 20.029 154.57 20.029C154.779 20.029 154.959 20.1065 155.111 20.2615C155.263 20.4164 155.339 20.6101 155.339 20.8425C155.339 21.0555 155.273 21.2395 155.14 21.3944L148.023 30.7486V39.8413C148.023 40.1125 147.948 40.3352 147.796 40.5095C147.644 40.6838 147.435 40.771 147.169 40.771C146.904 40.771 146.686 40.6838 146.515 40.5095C146.363 40.3352 146.287 40.1125 146.287 39.8413V30.6905L139.199 21.3944C139.066 21.2395 139 21.0555 139 20.8425C139 20.6294 139.076 20.4454 139.228 20.2905C139.38 20.1162 139.56 20.029 139.769 20.029C140.015 20.029 140.224 20.1453 140.395 20.3777L147.169 29.3251L153.944 20.3777Z" fill="white"/>
<path d="M166.142 26.2458C166.408 26.2458 166.617 26.333 166.769 26.5073C166.939 26.6622 167.025 26.8752 167.025 27.1464V39.8704C167.025 40.1415 166.939 40.3642 166.769 40.5385C166.617 40.6935 166.408 40.771 166.142 40.771C165.896 40.771 165.696 40.6935 165.545 40.5385C165.393 40.3642 165.317 40.1415 165.317 39.8704V38.0983C164.88 38.9892 164.254 39.667 163.438 40.1318C162.641 40.5966 161.73 40.829 160.706 40.829C159.074 40.829 157.84 40.3739 157.005 39.4637C156.189 38.5341 155.781 37.1687 155.781 35.3676V27.1464C155.781 26.8752 155.857 26.6622 156.009 26.5073C156.18 26.333 156.398 26.2458 156.663 26.2458C156.929 26.2458 157.138 26.333 157.29 26.5073C157.442 26.6622 157.517 26.8752 157.517 27.1464V35.2514C157.517 36.6264 157.783 37.6432 158.314 38.3017C158.865 38.9408 159.719 39.2603 160.876 39.2603C162.205 39.2603 163.267 38.8343 164.064 37.9821C164.88 37.1106 165.288 35.9583 165.288 34.5251V27.1464C165.288 26.8752 165.364 26.6622 165.516 26.5073C165.668 26.333 165.877 26.2458 166.142 26.2458Z" fill="white"/>
<path d="M178.062 26.1877C179.276 26.1877 180.348 26.4976 181.278 27.1173C182.208 27.7177 182.929 28.5795 183.442 29.7028C183.954 30.8067 184.21 32.0946 184.21 33.5665C184.21 35.019 183.954 36.2972 183.442 37.4011C182.929 38.4857 182.208 39.3281 181.278 39.9285C180.348 40.5289 179.276 40.829 178.062 40.829C176.942 40.829 175.974 40.587 175.158 40.1028C174.342 39.5993 173.725 38.873 173.308 37.924V45.0994C173.308 45.3706 173.232 45.5836 173.08 45.7385C172.928 45.9128 172.72 46 172.454 46C172.188 46 171.97 45.9128 171.799 45.7385C171.648 45.5836 171.572 45.3706 171.572 45.0994V27.1464C171.572 26.8752 171.648 26.6622 171.799 26.5073C171.97 26.333 172.188 26.2458 172.454 26.2458C172.72 26.2458 172.928 26.333 173.08 26.5073C173.232 26.6622 173.308 26.8752 173.308 27.1464V29.0927C173.725 28.1438 174.342 27.4272 175.158 26.943C175.974 26.4395 176.942 26.1877 178.062 26.1877ZM177.805 39.2603C179.267 39.2603 180.396 38.7665 181.193 37.7788C182.009 36.7717 182.417 35.3676 182.417 33.5665C182.417 31.7266 182.009 30.2935 181.193 29.267C180.396 28.2406 179.276 27.7274 177.834 27.7274C176.392 27.7274 175.272 28.2309 174.475 29.238C173.697 30.2451 173.308 31.6685 173.308 33.5084C173.308 35.3482 173.697 36.7717 174.475 37.7788C175.253 38.7665 176.363 39.2603 177.805 39.2603Z" fill="white"/>
<path d="M188.158 37.9821C188.575 37.9821 188.907 38.1467 189.154 38.476C189.42 38.8052 189.553 39.2991 189.553 39.9575C189.553 41.3326 189.126 42.4849 188.272 43.4145C188.101 43.6082 187.911 43.705 187.702 43.705C187.532 43.705 187.38 43.6469 187.247 43.5307C187.114 43.4145 187.048 43.2693 187.048 43.095C187.048 42.9594 187.124 42.7948 187.275 42.6011C187.75 42.0588 188.025 41.4391 188.101 40.7419C187.74 40.7032 187.446 40.5676 187.219 40.3352C187.01 40.0834 186.905 39.7639 186.905 39.3765C186.905 38.9698 187.019 38.6406 187.247 38.3888C187.494 38.1177 187.797 37.9821 188.158 37.9821Z" fill="white"/>
<path d="M206.907 40.771C206.642 40.771 206.433 40.6838 206.281 40.5095C206.129 40.3352 206.053 40.1125 206.053 39.8413V21.714H199.478C199.231 21.714 199.032 21.6462 198.88 21.5106C198.747 21.375 198.681 21.1814 198.681 20.9296C198.681 20.6778 198.747 20.4842 198.88 20.3486C199.032 20.213 199.231 20.1453 199.478 20.1453H214.337C214.564 20.1453 214.754 20.2227 214.906 20.3777C215.058 20.5132 215.134 20.6972 215.134 20.9296C215.134 21.162 215.058 21.3557 214.906 21.5106C214.754 21.6462 214.564 21.714 214.337 21.714H207.79V39.8413C207.79 40.1125 207.704 40.3352 207.533 40.5095C207.382 40.6838 207.173 40.771 206.907 40.771Z" fill="white"/>
<path d="M224.039 26.1877C227.36 26.1877 229.02 28.0082 229.02 31.6492V39.8704C229.02 40.1415 228.944 40.3642 228.792 40.5385C228.641 40.6935 228.432 40.771 228.166 40.771C227.9 40.771 227.682 40.6935 227.511 40.5385C227.36 40.3642 227.284 40.1415 227.284 39.8704V31.7654C227.284 30.371 227.009 29.3542 226.458 28.7151C225.908 28.076 225.035 27.7564 223.839 27.7564C222.473 27.7564 221.373 28.1825 220.538 29.0346C219.722 29.8868 219.314 31.0294 219.314 32.4626V39.8704C219.314 40.1415 219.238 40.3642 219.086 40.5385C218.934 40.6935 218.725 40.771 218.46 40.771C218.194 40.771 217.976 40.6935 217.805 40.5385C217.653 40.3642 217.577 40.1415 217.577 39.8704V20.9006C217.577 20.6294 217.653 20.4164 217.805 20.2615C217.976 20.0872 218.194 20 218.46 20C218.725 20 218.934 20.0872 219.086 20.2615C219.238 20.4164 219.314 20.6294 219.314 20.9006V28.8894C219.75 28.0179 220.376 27.3497 221.192 26.8849C222.027 26.4201 222.976 26.1877 224.039 26.1877Z" fill="white"/>
<path d="M238.998 26.1877C240.668 26.1877 241.911 26.6331 242.727 27.524C243.562 28.4149 243.98 29.7609 243.98 31.562V39.8413C243.98 40.1125 243.904 40.3352 243.752 40.5095C243.6 40.6644 243.392 40.7419 243.126 40.7419C242.86 40.7419 242.651 40.6644 242.5 40.5095C242.348 40.3352 242.272 40.1125 242.272 39.8413V38.0983C241.873 38.9698 241.295 39.6477 240.536 40.1318C239.777 40.5966 238.904 40.829 237.917 40.829C237.025 40.829 236.209 40.6451 235.469 40.2771C234.729 39.9091 234.14 39.3959 233.704 38.7374C233.286 38.079 233.078 37.3527 233.078 36.5587C233.078 35.5128 233.343 34.6994 233.875 34.1184C234.406 33.5374 235.289 33.121 236.522 32.8693C237.755 32.6175 239.473 32.4916 241.674 32.4916H242.272V31.4168C242.272 30.1385 242.016 29.2089 241.503 28.6279C240.991 28.0276 240.185 27.7274 239.084 27.7274C237.68 27.7274 236.342 28.105 235.07 28.8603C235.013 28.8991 234.862 29.0056 234.615 29.1799C234.387 29.3348 234.188 29.4123 234.017 29.4123C233.827 29.4123 233.666 29.3445 233.533 29.2089C233.419 29.054 233.362 28.87 233.362 28.657C233.362 28.2309 233.694 27.8145 234.359 27.4078C235.023 27.0205 235.763 26.7203 236.579 26.5073C237.395 26.2942 238.201 26.1877 238.998 26.1877ZM238.059 39.2894C239.293 39.2894 240.298 38.8633 241.076 38.0112C241.873 37.159 242.272 36.0745 242.272 34.7575V33.7989H241.731C239.909 33.7989 238.515 33.8764 237.547 34.0313C236.579 34.1862 235.896 34.4574 235.497 34.8447C235.099 35.2127 234.899 35.7549 234.899 36.4715C234.899 37.2849 235.203 37.9628 235.81 38.505C236.418 39.0279 237.167 39.2894 238.059 39.2894Z" fill="white"/>
<path d="M254.522 39.2894C255.054 39.3475 255.319 39.5993 255.319 40.0447C255.319 40.2771 255.234 40.4611 255.063 40.5966C254.892 40.7322 254.617 40.7903 254.238 40.771L253.441 40.7128C251.998 40.616 250.926 40.1706 250.224 39.3765C249.541 38.5631 249.199 37.3333 249.199 35.6872V27.9598H247.036C246.808 27.9598 246.628 27.9017 246.495 27.7855C246.362 27.6499 246.296 27.4756 246.296 27.2626C246.296 27.0495 246.362 26.8752 246.495 26.7397C246.628 26.6041 246.808 26.5363 247.036 26.5363H249.199V22.9341C249.199 22.6436 249.275 22.4209 249.427 22.2659C249.579 22.111 249.788 22.0335 250.053 22.0335C250.319 22.0335 250.528 22.111 250.68 22.2659C250.85 22.4209 250.936 22.6436 250.936 22.9341V26.5363H254.38C254.627 26.5363 254.817 26.6041 254.949 26.7397C255.082 26.8752 255.149 27.0495 255.149 27.2626C255.149 27.4756 255.082 27.6499 254.949 27.7855C254.817 27.9017 254.627 27.9598 254.38 27.9598H250.936V35.7743C250.936 36.975 251.164 37.8369 251.619 38.3598C252.074 38.8633 252.786 39.1538 253.754 39.2313L254.522 39.2894Z" fill="white"/>
<path d="M258.375 20C258.793 20 259.125 20.1646 259.372 20.4939C259.637 20.8037 259.77 21.2976 259.77 21.9754C259.77 23.3505 259.343 24.5028 258.489 25.4324C258.318 25.6261 258.129 25.7229 257.92 25.7229C257.749 25.7229 257.597 25.6648 257.465 25.5486C257.332 25.4324 257.265 25.2872 257.265 25.1128C257.265 24.9773 257.341 24.8127 257.493 24.619C257.967 24.0767 258.243 23.457 258.318 22.7598C257.958 22.721 257.664 22.5855 257.436 22.3531C257.227 22.1013 257.123 21.7818 257.123 21.3944C257.123 20.9877 257.237 20.6585 257.465 20.4067C257.711 20.1356 258.015 20 258.375 20Z" fill="white"/>
<path d="M267.44 40.829C266.643 40.829 265.856 40.7225 265.078 40.5095C264.319 40.2771 263.645 39.9672 263.057 39.5799C262.696 39.3281 262.44 39.1151 262.288 38.9408C262.155 38.7471 262.089 38.5341 262.089 38.3017C262.089 38.108 262.146 37.9434 262.26 37.8078C262.392 37.6723 262.544 37.6045 262.715 37.6045C262.886 37.6045 263.18 37.7497 263.597 38.0402C264.148 38.4082 264.708 38.7084 265.277 38.9408C265.865 39.1732 266.596 39.2894 267.469 39.2894C268.588 39.2894 269.461 39.086 270.087 38.6793C270.714 38.2533 271.027 37.6529 271.027 36.8782C271.027 36.4134 270.913 36.0358 270.685 35.7453C270.457 35.4354 270.078 35.1739 269.547 34.9609C269.015 34.7285 268.256 34.5058 267.269 34.2927C265.58 33.9054 264.375 33.4115 263.654 32.8112C262.952 32.1914 262.601 31.3683 262.601 30.3419C262.601 29.1024 263.076 28.105 264.024 27.3497C264.973 26.575 266.207 26.1877 267.725 26.1877C268.465 26.1877 269.167 26.2845 269.831 26.4782C270.514 26.6719 271.103 26.9527 271.596 27.3207C272.26 27.7855 272.592 28.2406 272.592 28.686C272.592 28.8797 272.526 29.054 272.393 29.2089C272.279 29.3445 272.137 29.4123 271.966 29.4123C271.776 29.4123 271.482 29.2574 271.084 28.9475C270.571 28.5795 270.059 28.289 269.547 28.076C269.053 27.8436 268.417 27.7274 267.639 27.7274C266.653 27.7274 265.865 27.9598 265.277 28.4246C264.689 28.87 264.394 29.4801 264.394 30.2547C264.394 30.7002 264.489 31.0682 264.679 31.3587C264.888 31.6492 265.229 31.9106 265.704 32.143C266.197 32.3561 266.899 32.5691 267.81 32.7821C269.12 33.092 270.125 33.4212 270.828 33.7698C271.53 34.1184 272.033 34.5348 272.336 35.019C272.64 35.5032 272.792 36.1229 272.792 36.8782C272.792 38.0596 272.298 39.0183 271.311 39.7542C270.344 40.4708 269.053 40.829 267.44 40.829Z" fill="white"/>
<path d="M301.868 20C302.153 20 302.371 20.0872 302.523 20.2615C302.694 20.4358 302.779 20.6585 302.779 20.9296V39.8413C302.779 40.1125 302.703 40.3352 302.552 40.5095C302.4 40.6838 302.191 40.771 301.925 40.771C301.66 40.771 301.46 40.6935 301.328 40.5385C301.195 40.3642 301.128 40.1318 301.128 39.8413V23.7184L294.382 37.0235C294.154 37.4689 293.841 37.6916 293.443 37.6916C293.044 37.6916 292.731 37.4689 292.503 37.0235L285.7 23.8346V39.8413C285.7 40.1318 285.634 40.3642 285.501 40.5385C285.368 40.6935 285.169 40.771 284.903 40.771C284.619 40.771 284.4 40.6935 284.249 40.5385C284.116 40.3642 284.049 40.1318 284.049 39.8413V20.9296C284.049 20.6585 284.125 20.4358 284.277 20.2615C284.448 20.0872 284.676 20 284.96 20C285.302 20 285.586 20.2227 285.814 20.6682L293.471 35.6581L301.015 20.6682C301.242 20.2227 301.527 20 301.868 20Z" fill="white"/>
<path d="M318.231 37.6045C318.402 37.6045 318.545 37.6819 318.658 37.8369C318.791 37.9724 318.858 38.1371 318.858 38.3307C318.858 38.7568 318.535 39.1732 317.89 39.5799C316.524 40.4127 315.081 40.829 313.563 40.829C311.457 40.829 309.796 40.1803 308.582 38.8827C307.367 37.5851 306.76 35.8034 306.76 33.5374C306.76 32.0849 307.026 30.8067 307.557 29.7028C308.107 28.5795 308.866 27.7177 309.834 27.1173C310.821 26.4976 311.95 26.1877 313.222 26.1877C315.005 26.1877 316.41 26.7784 317.434 27.9598C318.478 29.1218 319 30.7292 319 32.7821C319 33.1307 318.924 33.3922 318.772 33.5665C318.62 33.7214 318.374 33.7989 318.032 33.7989H308.553C308.61 35.5806 309.066 36.9363 309.92 37.8659C310.774 38.7955 311.979 39.2603 313.535 39.2603C314.351 39.2603 315.034 39.1538 315.584 38.9408C316.135 38.7084 316.723 38.4082 317.349 38.0402C317.767 37.7497 318.061 37.6045 318.231 37.6045ZM313.222 27.6402C311.893 27.6402 310.831 28.0663 310.034 28.9184C309.236 29.7706 308.762 30.9616 308.61 32.4916H317.406C317.368 30.9423 316.988 29.7512 316.267 28.9184C315.546 28.0663 314.531 27.6402 313.222 27.6402Z" fill="white"/>
<path d="M110.578 74.6151L110.658 75.6119L110.578 74.6151ZM25.7713 53.4015C25.2336 53.5278 24.9002 54.0661 25.0265 54.6037L27.085 63.3652C27.2113 63.9028 27.7496 64.2362 28.2872 64.1099C28.8249 63.9836 29.1583 63.4454 29.032 62.9077L27.2022 55.1198L34.9902 53.29C35.5278 53.1637 35.8612 52.6254 35.7349 52.0878C35.6086 51.5501 35.0704 51.2167 34.5327 51.343L25.7713 53.4015ZM184.125 54.375C183.61 53.5177 183.61 53.5176 183.61 53.5176C183.61 53.5176 183.61 53.5177 183.61 53.5178C183.61 53.5181 183.609 53.5186 183.607 53.5194C183.605 53.521 183.6 53.5236 183.594 53.5271C183.582 53.5343 183.564 53.5453 183.538 53.5602C183.488 53.5899 183.41 53.6349 183.307 53.6943C183.1 53.813 182.787 53.9892 182.372 54.2157C181.54 54.6688 180.297 55.323 178.659 56.1211C175.384 57.7172 170.532 59.8883 164.247 62.1753C151.677 66.7496 133.379 71.7865 110.499 73.6183L110.658 75.6119C133.745 73.7637 152.22 68.6805 164.931 64.0548C171.287 61.7418 176.203 59.5428 179.535 57.919C181.202 57.107 182.472 56.4388 183.329 55.9718C183.757 55.7383 184.082 55.5552 184.301 55.4295C184.411 55.3667 184.494 55.3183 184.551 55.2851C184.579 55.2685 184.6 55.2558 184.615 55.2469C184.623 55.2425 184.629 55.2391 184.633 55.2366C184.635 55.2354 184.636 55.2345 184.637 55.2337C184.638 55.2334 184.639 55.233 184.639 55.2329C184.639 55.2326 184.64 55.2323 184.125 54.375ZM110.499 73.6183C87.7031 75.4433 66.7064 70.4245 51.3892 64.9337C43.7346 62.1897 37.5094 59.3319 33.2012 57.1619C31.0474 56.0771 29.3735 55.1646 28.2406 54.5249C27.6741 54.205 27.243 53.9534 26.9548 53.7825C26.8107 53.6971 26.7023 53.6319 26.6306 53.5884C26.5948 53.5667 26.5681 53.5504 26.5508 53.5397C26.5421 53.5344 26.5357 53.5305 26.5317 53.528C26.5297 53.5268 26.5282 53.5259 26.5274 53.5254C26.527 53.5251 26.5268 53.525 26.5266 53.5249C26.5265 53.5248 26.5266 53.5249 26 54.375C25.4734 55.2251 25.4738 55.2253 25.4743 55.2257C25.4747 55.2259 25.4754 55.2263 25.4761 55.2268C25.4776 55.2277 25.4797 55.229 25.4824 55.2307C25.4878 55.234 25.4955 55.2387 25.5056 55.2449C25.5257 55.2572 25.5551 55.2752 25.5937 55.2986C25.6709 55.3454 25.785 55.4141 25.9349 55.503C26.2348 55.6807 26.6781 55.9394 27.2572 56.2664C28.4154 56.9204 30.1172 57.8479 32.3015 58.9481C36.6695 61.1482 42.9702 64.0403 50.7143 66.8164C66.1947 72.3657 87.4873 77.4669 110.658 75.6119L110.499 73.6183Z" fill="white"/>
<circle cx="184.125" cy="54.375" r="1.375" fill="white"/>
</svg>
